<?xml version="1.0" encoding="UTF-8" standalone="no"?>
<svg width="200" height="50" viewBox="0 0 200 50" fill="none" xmlns="http://www.w3.org/2000/svg">
  <path d="M40 25C40 33.2843 33.2843 40 25 40C16.7157 40 10 33.2843 10 25C10 16.7157 16.7157 10 25 10C33.2843 10 40 16.7157 40 25Z" fill="#4CAF50"/>
  <path d="M25 15C25.5523 15 26 15.4477 26 16V34C26 34.5523 25.5523 35 25 35C24.4477 35 24 34.5523 24 34V16C24 15.4477 24.4477 15 25 15Z" fill="white"/>
  <path d="M16 25C16 24.4477 16.4477 24 17 24H33C33.5523 24 34 24.4477 34 25C34 25.5523 33.5523 26 33 26H17C16.4477 26 16 25.5523 16 25Z" fill="white"/>
  <path d="M55 18.5H59.5C61.5 18.5 63 19 64 20C65 21 65.5 22.5 65.5 24.5C65.5 26.5 65 28 64 29C63 30 61.5 30.5 59.5 30.5H55V18.5ZM59.5 28.5C60.8333 28.5 61.8333 28.1667 62.5 27.5C63.1667 26.8333 63.5 25.8333 63.5 24.5C63.5 23.1667 63.1667 22.1667 62.5 21.5C61.8333 20.8333 60.8333 20.5 59.5 20.5H57V28.5H59.5Z" fill="#333333"/>
  <path d="M72.5 30.5H70.5V18.5H72.5V30.5Z" fill="#333333"/>
  <path d="M80 30.5H78V18.5H80V30.5Z" fill="#333333"/>
  <path d="M89 30.5H87V20.5H83V18.5H93V20.5H89V30.5Z" fill="#333333"/>
  <path d="M99 30.5H97V18.5H99V23.5H105V18.5H107V30.5H105V25.5H99V30.5Z" fill="#333333"/>
  <path d="M114 30.5H112V18.5H114V30.5Z" fill="#333333"/>
  <path d="M124 30.5H116V18.5H124V20.5H118V23.5H123.5V25.5H118V28.5H124V30.5Z" fill="#333333"/>
  <path d="M131 30.5H129V20.5H125V18.5H135V20.5H131V30.5Z" fill="#333333"/>
  <path d="M141 30.5H139V18.5H141V23.5H147V18.5H149V30.5H147V25.5H141V30.5Z" fill="#333333"/>
  <path d="M156 30.5H154V18.5H156V30.5Z" fill="#333333"/>
  <path d="M166 30.5H158V18.5H166V20.5H160V23.5H165.5V25.5H160V28.5H166V30.5Z" fill="#333333"/>
  <path d="M173 30.5H171V20.5H167V18.5H177V20.5H173V30.5Z" fill="#333333"/>
  <path d="M183 30.5H181V18.5H183V30.5Z" fill="#333333"/>
  <path d="M193 30.5H185V18.5H193V20.5H187V23.5H192.5V25.5H187V28.5H193V30.5Z" fill="#333333"/>
</svg>
